<?xml version="1.0" encoding="utf-8"?>
<svg viewBox="0 0 600 600" version="1.1" id="svg9724" width="600" height="600" xmlns="http://www.w3.org/2000/svg">
  <g id="g10449" transform="matrix(0.95173205,0,0,0.95115787,13.901174,12.168794)" style="stroke-width: 1.05103;">
    <title>Овал</title>
    <g id="path10026" transform="matrix(1.3807551,0,0,1.2700888,273.60014,263.99768)"/>
    <g id="g11314" transform="matrix(1.5092301,0,0,1.3955555,36.774048,-9.4503933)" style="stroke-width:50.6951"/>
    <path style="color: rgb(0, 0, 0); stroke-linecap: round; stroke-linejoin: round; paint-order: stroke; fill: rgb(6, 6, 17);" d="m 132.50586,-12.792969 c -80.786912,0 -147.111329,66.38096 -147.111329,147.175779 v 336.45703 c 0,80.79483 66.324417,147.17578 147.111329,147.17578 h 336.20508 c 80.78691,0 147.11328,-66.38095 147.11328,-147.17578 V 134.38281 c 0,-80.794819 -66.32637,-147.175779 -147.11328,-147.175779 z" id="rect1334"/>
  </g>
  <g transform="matrix(1, 0, 0, 1, 0, 0.000198)">
    <path style="color: rgb(0, 0, 0); stroke-linecap: round; stroke-linejoin: round; fill: rgb(6, 143, 255);" d="M 116.718 75.029 C 99.502 74.049 85.003 87.736 85 104.969 L 85 494.993 C 85.004 517.289 108.484 531.788 128.438 521.813 L 518.423 326.802 C 528.583 321.719 535 311.336 535 299.981 C 535 288.626 528.583 278.243 518.423 273.16 L 128.438 78.149 C 124.784 76.322 120.796 75.261 116.718 75.029 Z" id="path559"/>
    <path d="M 430.68 266.69 L 463.35 266.69 L 463.244 331.857 L 430.68 332.03 L 430.68 266.69 Z M 332.67 234.02 L 365.34 234.02 L 365.34 364.7 L 332.67 364.7 L 332.67 234.02 Z M 283.665 185.015 L 316.335 185.015 L 316.335 413.705 L 283.665 413.705 L 283.665 185.015 Z M 136.65 266.69 L 169.32 266.69 L 169.32 332.03 L 136.65 332.03 L 136.65 266.69 Z M 185.655 217.685 L 218.325 217.685 L 218.325 381.035 L 185.655 381.035 L 185.655 217.685 Z M 234.66 131.264 L 267.33 147.601 L 234.66 131.264 Z M 267.33 452.361 L 234.66 468.698 L 267.33 452.361 Z M 116.718 75.028 C 99.502 74.049 85.003 87.735 85 104.969 L 85 494.993 C 85.004 517.29 108.484 531.788 128.438 521.814 L 234.66 468.698 L 234.66 131.264 L 128.438 78.148 C 124.784 76.322 120.796 75.261 116.718 75.028 Z M 518.422 326.802 C 528.583 321.719 535 311.337 535 299.981 C 535 288.625 528.583 278.243 518.422 273.16 L 414.345 221.116 L 414.345 378.846 L 518.422 326.802 Z M 381.675 395.183 C 381.675 325.321 381.675 237.543 381.675 204.779 L 267.33 147.601 L 267.33 452.361 L 381.675 395.183 Z" id="path-1" style="fill: rgb(255, 255, 255);"/>
  </g>
  <path d="M 430.68 267.33 L 463.35 267.33 L 463.35 332.67 L 430.68 332.67 L 430.68 267.33 Z M 381.675 192.316 L 414.345 218.325 L 414.345 381.675 L 381.675 413.179 C 381.675 676.668 381.675 195.84 381.675 192.316 Z M 332.67 234.66 L 365.34 234.66 L 365.34 365.34 L 332.67 365.34 L 332.67 234.66 Z M 283.665 185.655 L 316.335 185.655 L 316.335 414.345 L 283.665 414.345 L 283.665 185.655 Z M 136.65 267.33 L 169.32 267.33 L 169.32 332.67 L 136.65 332.67 L 136.65 267.33 Z M 185.655 218.325 L 218.325 218.325 L 218.325 381.675 L 185.655 381.675 L 185.655 218.325 Z M 234.66 121.228 L 267.33 136.65 L 267.33 463.35 L 234.66 481.074 L 234.66 121.228 Z" id="Combined-Shape" style="fill: rgb(255, 255, 255); visibility: hidden;">
    <title>wave</title>
  </path>
</svg>